<?xml version="1.0" standalone="no"?>
<!DOCTYPE svg PUBLIC "-//W3C//DTD SVG 20010904//EN"
 "http://www.w3.org/TR/2001/REC-SVG-20010904/DTD/svg10.dtd">
<svg version="1.0" xmlns="http://www.w3.org/2000/svg"
 width="260.000000pt" height="260.000000pt" viewBox="0 0 260.000000 260.000000"
 preserveAspectRatio="xMidYMid meet">
<metadata>
Created by potrace 1.11, written by Peter Selinger 2001-2013
</metadata>
<g transform="translate(0.000000,260.000000) scale(0.100000,-0.100000)"
fill="#000000" stroke="none">
<path d="M1149 2576 c-3 -4 -22 -8 -42 -9 -20 -2 -39 -6 -43 -9 -3 -4 -12 -4
-20 -1 -8 3 -14 -1 -14 -8 0 -10 -3 -10 -11 -2 -9 9 -15 8 -26 -2 -7 -8 -20
-12 -28 -9 -8 4 -15 1 -15 -5 0 -6 -3 -10 -7 -9 -17 3 -83 -15 -83 -23 0 -5
-7 -9 -15 -9 -9 0 -38 -11 -65 -25 -28 -14 -53 -25 -56 -24 -4 0 -10 -5 -15
-13 -5 -7 -12 -13 -16 -13 -12 -1 -66 -37 -84 -57 -9 -10 -18 -15 -21 -13 -6
7 -164 -148 -198 -194 -14 -18 -32 -41 -40 -50 -8 -9 -26 -37 -39 -61 -13 -25
-29 -49 -35 -55 -6 -5 -13 -19 -14 -30 -2 -11 -9 -23 -15 -27 -7 -4 -8 -8 -2
-8 5 0 4 -5 -3 -12 -7 -7 -12 -20 -12 -30 0 -10 -5 -18 -12 -18 -6 0 -9 -3 -5
-6 3 -4 0 -19 -9 -35 -8 -16 -12 -29 -10 -29 3 0 1 -12 -5 -27 -12 -31 -18
-54 -24 -98 -3 -16 -8 -41 -12 -55 -9 -33 -9 -287 0 -325 4 -16 9 -43 12 -60
4 -24 14 -69 20 -95 9 -39 31 -96 38 -101 5 -3 8 -10 7 -15 -2 -13 42 -106 58
-122 7 -8 10 -18 7 -23 -4 -5 -3 -9 2 -9 4 0 24 -25 42 -55 19 -30 39 -55 43
-55 4 0 8 -5 8 -11 0 -6 24 -35 54 -65 29 -29 51 -56 48 -59 -3 -3 -1 -5 4 -5
5 0 30 -18 54 -40 25 -22 50 -40 55 -40 6 0 17 -9 25 -19 7 -11 17 -18 21 -15
4 2 10 0 14 -6 3 -5 -6 -12 -20 -16 -72 -18 -88 -124 -18 -124 33 0 48 34 32
72 -10 25 -10 31 2 39 33 21 67 -4 73 -54 5 -41 1 -46 -70 -83 -87 -45 -116
-102 -74 -144 26 -26 56 -25 108 5 31 18 42 20 42 10 0 -32 70 -46 103 -21 21
16 22 26 3 26 -17 0 -23 51 -16 137 l5 62 42 -19 c23 -10 44 -16 47 -12 8 7 8
3 11 -87 1 -61 -2 -78 -17 -93 -17 -17 -16 -18 65 -18 70 1 80 3 65 14 -14 10
-18 28 -18 80 0 62 1 66 23 66 41 -1 57 -23 57 -80 0 -39 -5 -56 -17 -66 -15
-11 -6 -13 66 -14 74 0 82 2 66 14 -14 10 -19 28 -20 70 l-2 56 37 0 c36 0 38
-2 44 -40 9 -56 51 -100 102 -107 34 -4 46 -1 63 16 23 23 44 20 34 -5 -5 -13
0 -14 28 -9 19 3 48 8 64 10 17 2 32 4 34 4 3 1 -4 7 -14 15 -15 11 -19 28
-20 84 -1 53 2 73 13 77 7 3 18 3 23 -1 5 -3 9 0 9 5 0 6 9 11 19 11 14 0 19
-7 18 -27 -3 -62 12 -109 48 -143 33 -32 41 -35 95 -35 65 0 96 20 127 80 33
62 12 178 -38 213 -23 16 -25 32 -4 32 8 0 15 4 15 10 0 5 11 12 25 16 14 3
22 10 19 15 -3 5 1 9 10 9 8 0 16 4 18 8 2 4 20 21 40 36 21 16 35 33 31 40
-3 6 -3 8 2 4 9 -9 75 54 75 72 0 6 5 8 10 5 6 -3 10 -2 10 3 0 5 9 20 20 33
41 49 67 89 68 103 0 5 4 12 9 15 17 11 73 122 68 132 -4 5 -2 9 4 9 9 0 18
21 26 54 2 11 5 20 21 61 10 28 10 25 18 77 5 27 13 48 20 48 6 0 4 5 -4 10
-8 5 -10 10 -5 10 6 0 11 24 12 53 2 28 4 67 7 85 2 19 -1 32 -8 32 -7 0 -8 3
-1 8 13 8 13 71 1 91 -7 10 -5 12 4 6 9 -6 11 -4 5 5 -4 6 -9 29 -12 49 -7 61
-17 111 -33 166 -1 6 -4 15 -5 20 -2 6 -6 19 -11 30 -4 11 -8 26 -10 32 -4 24
-86 188 -102 206 -8 9 -11 17 -7 17 4 0 -2 9 -15 20 -13 11 -19 20 -15 20 4 0
-2 9 -15 20 -13 11 -19 20 -15 20 4 0 -6 14 -23 30 -18 17 -29 30 -25 30 3 0
-7 11 -23 25 -16 14 -32 25 -36 25 -5 0 -7 5 -5 12 1 6 -9 17 -23 25 -14 7
-21 13 -16 13 5 0 -8 11 -28 25 -20 14 -46 34 -58 45 -12 11 -28 20 -35 20 -7
0 -13 4 -13 9 0 5 -10 13 -22 17 -13 4 -25 10 -28 14 -7 10 -136 70 -160 75
-11 2 -26 7 -33 12 -14 9 -33 14 -62 16 -11 1 -22 5 -25 9 -4 4 -23 9 -43 10
-20 2 -37 6 -37 9 0 3 -6 7 -12 8 -32 6 -304 12 -309 7z m691 -2145 c14 -27 7
-216 -10 -235 -16 -21 -44 -20 -61 0 -16 20 -23 199 -9 224 5 8 10 11 10 7 0
-5 10 -1 22 7 29 21 35 20 48 -3z m-1104 -156 c-4 -61 -38 -93 -65 -61 -16 19
-4 60 27 91 29 29 41 20 38 -30z m724 -57 c-12 -10 -28 -18 -36 -18 -18 0 -40
36 -48 78 l-5 32 44 0 c24 0 47 6 52 13 5 7 9 -8 11 -38 3 -41 0 -53 -18 -67z"/>
<path d="M75 613 c49 -13 51 -21 49 -210 -1 -98 -2 -186 -3 -195 0 -10 -14
-21 -33 -27 -25 -7 -4 -9 87 -9 66 0 111 2 100 5 -36 8 -45 33 -45 121 0 110
12 107 104 -25 l71 -103 75 1 c61 0 71 2 53 11 -18 9 -108 128 -147 196 -5 8
2 16 23 23 78 27 89 140 18 191 -29 21 -44 23 -202 25 -93 1 -161 -1 -150 -4z
m249 -24 c27 -13 36 -28 43 -77 10 -69 -30 -112 -102 -112 l-35 0 0 100 0 100
35 0 c19 0 45 -5 59 -11z"/>
<path d="M2168 478 c-16 -5 -28 -14 -28 -19 0 -5 -4 -9 -10 -9 -5 0 -10 7 -10
15 0 12 -14 15 -62 15 -59 0 -60 -1 -45 -18 25 -27 25 -247 0 -274 -15 -17
-13 -18 61 -18 l76 0 -14 23 c-10 15 -14 52 -14 119 1 81 4 101 20 118 10 11
24 20 31 20 30 0 37 -25 37 -134 0 -88 -3 -113 -17 -128 -15 -17 -13 -18 67
-18 75 0 82 2 64 14 -16 13 -19 28 -20 119 -2 98 0 107 21 127 13 12 31 20 42
18 16 -3 18 -16 21 -127 2 -109 1 -125 -15 -137 -16 -12 -7 -13 66 -14 74 0
82 2 66 14 -16 11 -19 28 -20 117 -1 57 -5 118 -9 136 -13 56 -95 69 -152 24
-25 -19 -25 -19 -49 5 -26 26 -60 30 -107 12z"/>
</g>
</svg>
